<svg id="icons" enable-background="new 0 0 64 64" height="512" viewBox="0 0 64 64" width="512" xmlns="http://www.w3.org/2000/svg"><path d="m63.928 19.144c-.023-.063-.063-.113-.099-.169-.033-.053-.06-.107-.103-.153-.052-.055-.114-.093-.177-.135-.04-.027-.069-.065-.114-.087l-31-15c-.019-.009-.039-.007-.058-.015-.063-.025-.127-.036-.194-.049-.061-.012-.12-.027-.183-.026-.062-.001-.121.015-.184.026-.066.013-.131.023-.193.049-.02.008-.04.006-.059.015l-14.564 7.046v-2.146c.553 0 1-.447 1-1v-3c0-.553-.447-1-1-1h-9c-.553 0-1 .447-1 1v3c0 .553.447 1 1 1v6.502l-7.436 3.598c-.045.021-.074.06-.114.087-.063.042-.126.08-.177.135-.043.046-.07.101-.104.153-.035.056-.074.106-.098.169-.026.068-.032.141-.043.213-.007.048-.028.092-.028.143v4c0 .009.005.016.005.024.002.066.024.13.04.196.015.065.021.132.049.19.003.008.002.017.006.024.048.098.111.182.183.256.017.018.038.03.056.047.069.062.145.112.227.152.03.015.06.028.092.04.109.04.224.068.342.069h.002.001c.002 0 .005-.002.007-.002.146-.001.281-.036.405-.093.007-.003.016-.001.022-.005l1.563-.754v35.856c0 .553.447 1 1 1h56c.553 0 1-.447 1-1v-35.856l1.564.757c.008.004.016.002.022.005.124.057.26.092.405.093.002 0 .005.002.007.002h.001.002c.118-.001.232-.029.342-.069.032-.012.062-.025.092-.04.082-.04.157-.091.227-.152.018-.017.039-.029.056-.047.071-.074.135-.158.183-.256.004-.008.003-.017.006-.023.027-.06.034-.127.049-.191.016-.066.039-.131.04-.196 0-.009.005-.016.005-.024v-4c0-.051-.021-.095-.029-.145-.012-.075-.018-.146-.044-.214zm-31.492-11.544c-.019-.009-.039-.007-.058-.015-.063-.025-.127-.036-.194-.049-.062-.012-.121-.027-.184-.026-.062-.001-.121.015-.184.026-.066.013-.131.023-.193.049-.02.008-.04.006-.059.015l-29.564 14.305v-1.778l30-14.516 30 14.516v1.778zm-23.436-2.1h7v1h-7zm1 3h5v3.114l-5 2.42zm49 50h-54v-35.824l27-13.065 27 13.064z"/><path d="m32 24.499c-7.72 0-14 6.28-14 14s6.28 14 14 14 14-6.28 14-14-6.28-14-14-14zm0 26c-6.617 0-12-5.383-12-12s5.383-12 12-12 12 5.383 12 12-5.383 12-12 12z"/><path d="m32 31.499c-3.859 0-7 3.141-7 7s3.141 7 7 7 7-3.141 7-7-3.141-7-7-7zm0 12c-2.757 0-5-2.243-5-5s2.243-5 5-5 5 2.243 5 5-2.243 5-5 5z"/><path d="m18.002 32.504v-7.005c0-.553-.447-1-1-1s-1 .447-1 1v4.002h-.502v-4.002c0-.553-.447-1-1-1s-1 .447-1 1v4.002h-.499v-4.002c0-.553-.447-1-1-1s-1 .447-1 1v7.002c0 .002-.001.003-.001.005 0 1.102.896 1.997 1.997 1.997h.504v17.011c0 .553.447 1 1 1s1-.447 1-1v-17.011h.489c.004 0 .006.002.01.002 1.103 0 2.001-.898 2.002-2.001zm-2-1.003v.994c0 .003-.002.005-.002.008h-2.999v-1.002z"/><path d="m47.003 51.514c0 .553.447 1 1 1s1-.447 1-1v-11.012h2c.553 0 1-.447 1-1v-11c0-2.205-1.791-3.998-3.994-4.005-.002 0-.004-.001-.006-.001-.001 0-.001 0-.002 0s-.003 0-.004 0c-.553 0-1 .447-1 1 0 .011.006.019.006.029zm3-23.012v10h-1v-11.726c.595.349 1 .988 1 1.726z"/></svg>